<svg width="44" height="55" xmlns="http://www.w3.org/2000/svg">
 <g>
  <title>background</title>
  <rect fill="none" id="canvas_background" height="46" width="46" y="-1" x="-1"/>
 </g>

 <g>
  <title>Layer 1</title>
  <g transform="rotate(180 21.999998092651367,22) " id="svg_1">
   <g id="svg_2">
    <path id="svg_6" d="m1.5,17.6l41,0c0.6,0 1.1,-0.5 1.1,-1.1c0,-0.6 -0.5,-1.1 -1.1,-1.1l-41,0c-0.6,0 -1.1,0.5 -1.1,1.1c0,0.6 0.5,1.1 1.1,1.1z" fill="#000000"/>
    <path id="svg_5" d="m1.5,39.5l29,0c0.6,0 1.1,-0.5 1.1,-1.1c0,-0.6 -0.5,-1.1 -1.1,-1.1l-29,0c-0.6,0 -1.1,0.5 -1.1,1.1c0,0.6 0.5,1.1 1.1,1.1z" fill="#000000"/>
    <path id="svg_4" d="m1.5,6.7l36,0c0.6,0 1.1,-0.5 1.1,-1.1s-0.5,-1.1 -1.1,-1.1l-36,0c-0.6,0 -1.1,0.5 -1.1,1.1s0.5,1.1 1.1,1.1z" fill="#000000"/>
    <path id="svg_3" d="m1.5,28.6l17.8,0c0.6,0 1.1,-0.5 1.1,-1.1c0,-0.6 -0.5,-1.1 -1.1,-1.1l-17.8,0c-0.6,0 -1.1,0.5 -1.1,1.1c0,0.6 0.5,1.1 1.1,1.1z" fill="#000000"/>
   </g>
  </g>
 </g>
</svg>
